<svg width="516" height="157" viewBox="0 0 516 157" fill="none" xmlns="http://www.w3.org/2000/svg">
<path d="M1.246 32V27.38H0.259V26.785H1.939V32H1.246ZM5.21385 32.084C4.79852 32.084 4.43452 31.972 4.12185 31.748C3.81385 31.5193 3.57352 31.2043 3.40085 30.803C3.22818 30.397 3.14185 29.9257 3.14185 29.389C3.14185 28.8523 3.22818 28.3833 3.40085 27.982C3.57352 27.576 3.81385 27.261 4.12185 27.037C4.42985 26.813 4.79152 26.701 5.20685 26.701C5.62219 26.701 5.98385 26.813 6.29185 27.037C6.59985 27.261 6.84018 27.576 7.01285 27.982C7.19019 28.3833 7.27885 28.8523 7.27885 29.389C7.27885 29.9257 7.19252 30.397 7.01985 30.803C6.84719 31.209 6.60452 31.524 6.29185 31.748C5.98385 31.972 5.62452 32.084 5.21385 32.084ZM5.21385 31.447C5.49385 31.447 5.73652 31.363 5.94185 31.195C6.14719 31.0223 6.30585 30.782 6.41785 30.474C6.53452 30.166 6.59285 29.8043 6.59285 29.389C6.59285 28.9737 6.53452 28.612 6.41785 28.304C6.30585 27.996 6.14485 27.758 5.93485 27.59C5.72952 27.422 5.48685 27.338 5.20685 27.338C4.92685 27.338 4.68419 27.422 4.47885 27.59C4.27352 27.758 4.11252 27.996 3.99585 28.304C3.88385 28.612 3.82785 28.9737 3.82785 29.389C3.82785 29.7997 3.88385 30.159 3.99585 30.467C4.11252 30.775 4.27352 31.0153 4.47885 31.188C4.68885 31.3607 4.93385 31.447 5.21385 31.447ZM10.2793 32.084C9.86395 32.084 9.49995 31.972 9.18728 31.748C8.87928 31.5193 8.63895 31.2043 8.46628 30.803C8.29361 30.397 8.20728 29.9257 8.20728 29.389C8.20728 28.8523 8.29361 28.3833 8.46628 27.982C8.63895 27.576 8.87928 27.261 9.18728 27.037C9.49528 26.813 9.85695 26.701 10.2723 26.701C10.6876 26.701 11.0493 26.813 11.3573 27.037C11.6653 27.261 11.9056 27.576 12.0783 27.982C12.2556 28.3833 12.3443 28.8523 12.3443 29.389C12.3443 29.9257 12.2579 30.397 12.0853 30.803C11.9126 31.209 11.6699 31.524 11.3573 31.748C11.0493 31.972 10.6899 32.084 10.2793 32.084ZM10.2793 31.447C10.5593 31.447 10.8019 31.363 11.0073 31.195C11.2126 31.0223 11.3713 30.782 11.4833 30.474C11.5999 30.166 11.6583 29.8043 11.6583 29.389C11.6583 28.9737 11.5999 28.612 11.4833 28.304C11.3713 27.996 11.2103 27.758 11.0003 27.59C10.7949 27.422 10.5523 27.338 10.2723 27.338C9.99228 27.338 9.74961 27.422 9.54428 27.59C9.33895 27.758 9.17795 27.996 9.06128 28.304C8.94928 28.612 8.89328 28.9737 8.89328 29.389C8.89328 29.7997 8.94928 30.159 9.06128 30.467C9.17795 30.775 9.33895 31.0153 9.54428 31.188C9.75428 31.3607 9.99928 31.447 10.2793 31.447ZM13.8047 32L18.0607 26.785H18.8377L14.5817 32H13.8047ZM14.5887 29.431C14.332 29.431 14.101 29.3703 13.8957 29.249C13.6904 29.123 13.5247 28.9573 13.3987 28.752C13.2774 28.5467 13.2167 28.318 13.2167 28.066C13.2167 27.814 13.2774 27.5853 13.3987 27.38C13.5247 27.17 13.6904 27.0043 13.8957 26.883C14.101 26.7617 14.332 26.701 14.5887 26.701C14.8407 26.701 15.0694 26.7617 15.2747 26.883C15.48 27.0043 15.6434 27.17 15.7647 27.38C15.886 27.5853 15.9467 27.814 15.9467 28.066C15.9467 28.318 15.886 28.5467 15.7647 28.752C15.6434 28.9573 15.48 29.123 15.2747 29.249C15.0694 29.3703 14.8407 29.431 14.5887 29.431ZM14.5817 28.857C14.7404 28.857 14.8757 28.8197 14.9877 28.745C15.0997 28.6703 15.1884 28.5723 15.2537 28.451C15.319 28.3297 15.3517 28.2013 15.3517 28.066C15.3517 27.926 15.319 27.7977 15.2537 27.681C15.1884 27.5597 15.0997 27.4617 14.9877 27.387C14.8757 27.3077 14.7404 27.268 14.5817 27.268C14.4324 27.268 14.2994 27.3077 14.1827 27.387C14.066 27.4617 13.975 27.5597 13.9097 27.681C13.8444 27.8023 13.8117 27.9307 13.8117 28.066C13.8117 28.1967 13.8444 28.325 13.9097 28.451C13.975 28.5723 14.066 28.6703 14.1827 28.745C14.2994 28.8197 14.4324 28.857 14.5817 28.857ZM18.0117 32.084C17.755 32.084 17.524 32.0233 17.3187 31.902C17.1134 31.776 16.9477 31.6103 16.8217 31.405C16.7004 31.1997 16.6397 30.971 16.6397 30.719C16.6397 30.467 16.7004 30.2383 16.8217 30.033C16.9477 29.823 17.1134 29.6573 17.3187 29.536C17.524 29.4147 17.755 29.354 18.0117 29.354C18.2637 29.354 18.4924 29.4147 18.6977 29.536C18.903 29.6573 19.0664 29.823 19.1877 30.033C19.309 30.2383 19.3697 30.467 19.3697 30.719C19.3697 30.971 19.309 31.1997 19.1877 31.405C19.0664 31.6103 18.903 31.776 18.6977 31.902C18.4924 32.0233 18.2637 32.084 18.0117 32.084ZM18.0117 31.51C18.1657 31.51 18.2987 31.4727 18.4107 31.398C18.5274 31.3233 18.616 31.2253 18.6767 31.104C18.742 30.9827 18.7747 30.8543 18.7747 30.719C18.7747 30.579 18.742 30.4507 18.6767 30.334C18.616 30.2127 18.5274 30.1147 18.4107 30.04C18.2987 29.9607 18.1657 29.921 18.0117 29.921C17.8624 29.921 17.727 29.9607 17.6057 30.04C17.489 30.1147 17.398 30.2127 17.3327 30.334C17.2674 30.4553 17.2347 30.5837 17.2347 30.719C17.2347 30.8497 17.2674 30.978 17.3327 31.104C17.398 31.2253 17.489 31.3233 17.6057 31.398C17.727 31.4727 17.8624 31.51 18.0117 31.51Z" fill="#6A6969"/>
<path d="M3.705 59.084C3.355 59.084 3.04467 59.014 2.774 58.874C2.508 58.734 2.298 58.545 2.144 58.307C1.99467 58.0643 1.92 57.7937 1.92 57.495C1.92 57.159 2.01333 56.865 2.2 56.613C2.38667 56.361 2.64333 56.1813 2.97 56.074L2.956 56.249C2.70867 56.151 2.515 55.9947 2.375 55.78C2.23967 55.5607 2.172 55.325 2.172 55.073C2.172 54.807 2.23733 54.5713 2.368 54.366C2.50333 54.1607 2.68533 53.9997 2.914 53.883C3.14733 53.7617 3.411 53.701 3.705 53.701C3.999 53.701 4.26033 53.7593 4.489 53.876C4.71767 53.9927 4.89733 54.156 5.028 54.366C5.16333 54.5713 5.231 54.807 5.231 55.073C5.231 55.339 5.15867 55.577 5.014 55.787C4.874 55.997 4.68733 56.1533 4.454 56.256L4.433 56.074C4.76433 56.1813 5.02333 56.3633 5.21 56.62C5.39667 56.872 5.49 57.1637 5.49 57.495C5.49 57.7937 5.413 58.0643 5.259 58.307C5.10967 58.545 4.89967 58.734 4.629 58.874C4.363 59.014 4.055 59.084 3.705 59.084ZM3.705 58.489C3.92433 58.489 4.11567 58.447 4.279 58.363C4.44233 58.279 4.56833 58.1623 4.657 58.013C4.75033 57.859 4.797 57.684 4.797 57.488C4.797 57.2873 4.75033 57.1123 4.657 56.963C4.56833 56.809 4.44233 56.6923 4.279 56.613C4.11567 56.529 3.92433 56.487 3.705 56.487C3.48567 56.487 3.292 56.529 3.124 56.613C2.96067 56.6923 2.83467 56.809 2.746 56.963C2.65733 57.1123 2.613 57.2873 2.613 57.488C2.613 57.684 2.65733 57.859 2.746 58.013C2.83467 58.1623 2.96067 58.279 3.124 58.363C3.292 58.447 3.48567 58.489 3.705 58.489ZM3.705 55.892C3.86367 55.892 4.00367 55.857 4.125 55.787C4.251 55.717 4.35133 55.6237 4.426 55.507C4.50067 55.3857 4.538 55.2457 4.538 55.087C4.538 54.9283 4.50067 54.7907 4.426 54.674C4.35133 54.5573 4.251 54.4663 4.125 54.401C4.00367 54.331 3.86367 54.296 3.705 54.296C3.54167 54.296 3.397 54.331 3.271 54.401C3.145 54.4663 3.04467 54.5573 2.97 54.674C2.89533 54.7907 2.858 54.9283 2.858 55.087C2.858 55.2457 2.89533 55.3857 2.97 55.507C3.04467 55.6237 3.145 55.717 3.271 55.787C3.397 55.857 3.54167 55.892 3.705 55.892ZM8.44334 59.084C8.02801 59.084 7.66401 58.972 7.35134 58.748C7.04334 58.5193 6.80301 58.2043 6.63034 57.803C6.45768 57.397 6.37134 56.9257 6.37134 56.389C6.37134 55.8523 6.45768 55.3833 6.63034 54.982C6.80301 54.576 7.04334 54.261 7.35134 54.037C7.65934 53.813 8.02101 53.701 8.43634 53.701C8.85168 53.701 9.21334 53.813 9.52134 54.037C9.82934 54.261 10.0697 54.576 10.2423 54.982C10.4197 55.3833 10.5083 55.8523 10.5083 56.389C10.5083 56.9257 10.422 57.397 10.2493 57.803C10.0767 58.209 9.83401 58.524 9.52134 58.748C9.21334 58.972 8.85401 59.084 8.44334 59.084ZM8.44334 58.447C8.72334 58.447 8.96601 58.363 9.17134 58.195C9.37668 58.0223 9.53534 57.782 9.64734 57.474C9.76401 57.166 9.82234 56.8043 9.82234 56.389C9.82234 55.9737 9.76401 55.612 9.64734 55.304C9.53534 54.996 9.37434 54.758 9.16434 54.59C8.95901 54.422 8.71634 54.338 8.43634 54.338C8.15634 54.338 7.91368 54.422 7.70834 54.59C7.50301 54.758 7.34201 54.996 7.22534 55.304C7.11334 55.612 7.05734 55.9737 7.05734 56.389C7.05734 56.7997 7.11334 57.159 7.22534 57.467C7.34201 57.775 7.50301 58.0153 7.70834 58.188C7.91834 58.3607 8.16334 58.447 8.44334 58.447ZM11.9688 59L16.2248 53.785H17.0018L12.7458 59H11.9688ZM12.7528 56.431C12.4961 56.431 12.2651 56.3703 12.0598 56.249C11.8544 56.123 11.6888 55.9573 11.5628 55.752C11.4414 55.5467 11.3808 55.318 11.3808 55.066C11.3808 54.814 11.4414 54.5853 11.5628 54.38C11.6888 54.17 11.8544 54.0043 12.0598 53.883C12.2651 53.7617 12.4961 53.701 12.7528 53.701C13.0048 53.701 13.2334 53.7617 13.4388 53.883C13.6441 54.0043 13.8074 54.17 13.9288 54.38C14.0501 54.5853 14.1108 54.814 14.1108 55.066C14.1108 55.318 14.0501 55.5467 13.9288 55.752C13.8074 55.9573 13.6441 56.123 13.4388 56.249C13.2334 56.3703 13.0048 56.431 12.7528 56.431ZM12.7458 55.857C12.9044 55.857 13.0398 55.8197 13.1518 55.745C13.2638 55.6703 13.3524 55.5723 13.4178 55.451C13.4831 55.3297 13.5158 55.2013 13.5158 55.066C13.5158 54.926 13.4831 54.7977 13.4178 54.681C13.3524 54.5597 13.2638 54.4617 13.1518 54.387C13.0398 54.3077 12.9044 54.268 12.7458 54.268C12.5964 54.268 12.4634 54.3077 12.3468 54.387C12.2301 54.4617 12.1391 54.5597 12.0738 54.681C12.0084 54.8023 11.9758 54.9307 11.9758 55.066C11.9758 55.1967 12.0084 55.325 12.0738 55.451C12.1391 55.5723 12.2301 55.6703 12.3468 55.745C12.4634 55.8197 12.5964 55.857 12.7458 55.857ZM16.1758 59.084C15.9191 59.084 15.6881 59.0233 15.4828 58.902C15.2774 58.776 15.1118 58.6103 14.9858 58.405C14.8644 58.1997 14.8038 57.971 14.8038 57.719C14.8038 57.467 14.8644 57.2383 14.9858 57.033C15.1118 56.823 15.2774 56.6573 15.4828 56.536C15.6881 56.4147 15.9191 56.354 16.1758 56.354C16.4278 56.354 16.6564 56.4147 16.8618 56.536C17.0671 56.6573 17.2304 56.823 17.3518 57.033C17.4731 57.2383 17.5338 57.467 17.5338 57.719C17.5338 57.971 17.4731 58.1997 17.3518 58.405C17.2304 58.6103 17.0671 58.776 16.8618 58.902C16.6564 59.0233 16.4278 59.084 16.1758 59.084ZM16.1758 58.51C16.3298 58.51 16.4628 58.4727 16.5748 58.398C16.6914 58.3233 16.7801 58.2253 16.8408 58.104C16.9061 57.9827 16.9388 57.8543 16.9388 57.719C16.9388 57.579 16.9061 57.4507 16.8408 57.334C16.7801 57.2127 16.6914 57.1147 16.5748 57.04C16.4628 56.9607 16.3298 56.921 16.1758 56.921C16.0264 56.921 15.8911 56.9607 15.7698 57.04C15.6531 57.1147 15.5621 57.2127 15.4968 57.334C15.4314 57.4553 15.3988 57.5837 15.3988 57.719C15.3988 57.8497 15.4314 57.978 15.4968 58.104C15.5621 58.2253 15.6531 58.3233 15.7698 58.398C15.8911 58.4727 16.0264 58.51 16.1758 58.51Z" fill="#6A6969"/>
<path d="M3.607 86.084C3.271 86.084 2.97233 86.0093 2.711 85.86C2.45433 85.7107 2.25133 85.5077 2.102 85.251C1.95267 84.9897 1.878 84.6933 1.878 84.362C1.878 84.18 1.899 84.0003 1.941 83.823C1.983 83.6457 2.05067 83.466 2.144 83.284C2.23733 83.102 2.35633 82.913 2.501 82.717L3.971 80.785H4.797L2.998 83.123L2.872 83.109C2.942 83.0157 3.019 82.9433 3.103 82.892C3.19167 82.8407 3.285 82.8033 3.383 82.78C3.48567 82.7567 3.593 82.745 3.705 82.745C4.013 82.745 4.28833 82.8173 4.531 82.962C4.77833 83.102 4.972 83.2957 5.112 83.543C5.25667 83.7903 5.329 84.075 5.329 84.397C5.329 84.719 5.25433 85.0083 5.105 85.265C4.95567 85.517 4.75033 85.7177 4.489 85.867C4.23233 86.0117 3.93833 86.084 3.607 86.084ZM3.607 85.468C3.803 85.468 3.978 85.4237 4.132 85.335C4.286 85.2417 4.40733 85.1133 4.496 84.95C4.58933 84.7867 4.636 84.6047 4.636 84.404C4.636 84.194 4.59167 84.012 4.503 83.858C4.41433 83.6993 4.293 83.5733 4.139 83.48C3.985 83.3867 3.80767 83.34 3.607 83.34C3.411 83.34 3.23367 83.3867 3.075 83.48C2.91633 83.5733 2.79267 83.6993 2.704 83.858C2.61533 84.012 2.571 84.194 2.571 84.404C2.571 84.6047 2.61533 84.7867 2.704 84.95C2.79733 85.1133 2.921 85.2417 3.075 85.335C3.23367 85.4237 3.411 85.468 3.607 85.468ZM8.23143 86.084C7.8161 86.084 7.4521 85.972 7.13943 85.748C6.83143 85.5193 6.5911 85.2043 6.41843 84.803C6.24576 84.397 6.15943 83.9257 6.15943 83.389C6.15943 82.8523 6.24576 82.3833 6.41843 81.982C6.5911 81.576 6.83143 81.261 7.13943 81.037C7.44743 80.813 7.8091 80.701 8.22443 80.701C8.63976 80.701 9.00143 80.813 9.30943 81.037C9.61743 81.261 9.85776 81.576 10.0304 81.982C10.2078 82.3833 10.2964 82.8523 10.2964 83.389C10.2964 83.9257 10.2101 84.397 10.0374 84.803C9.86476 85.209 9.6221 85.524 9.30943 85.748C9.00143 85.972 8.6421 86.084 8.23143 86.084ZM8.23143 85.447C8.51143 85.447 8.7541 85.363 8.95943 85.195C9.16476 85.0223 9.32343 84.782 9.43543 84.474C9.5521 84.166 9.61043 83.8043 9.61043 83.389C9.61043 82.9737 9.5521 82.612 9.43543 82.304C9.32343 81.996 9.16243 81.758 8.95243 81.59C8.7471 81.422 8.50443 81.338 8.22443 81.338C7.94443 81.338 7.70176 81.422 7.49643 81.59C7.2911 81.758 7.1301 81.996 7.01343 82.304C6.90143 82.612 6.84543 82.9737 6.84543 83.389C6.84543 83.7997 6.90143 84.159 7.01343 84.467C7.1301 84.775 7.2911 85.0153 7.49643 85.188C7.70643 85.3607 7.95143 85.447 8.23143 85.447ZM11.7569 86L16.0129 80.785H16.7899L12.5339 86H11.7569ZM12.5409 83.431C12.2842 83.431 12.0532 83.3703 11.8479 83.249C11.6425 83.123 11.4769 82.9573 11.3509 82.752C11.2295 82.5467 11.1689 82.318 11.1689 82.066C11.1689 81.814 11.2295 81.5853 11.3509 81.38C11.4769 81.17 11.6425 81.0043 11.8479 80.883C12.0532 80.7617 12.2842 80.701 12.5409 80.701C12.7929 80.701 13.0215 80.7617 13.2269 80.883C13.4322 81.0043 13.5955 81.17 13.7169 81.38C13.8382 81.5853 13.8989 81.814 13.8989 82.066C13.8989 82.318 13.8382 82.5467 13.7169 82.752C13.5955 82.9573 13.4322 83.123 13.2269 83.249C13.0215 83.3703 12.7929 83.431 12.5409 83.431ZM12.5339 82.857C12.6925 82.857 12.8279 82.8197 12.9399 82.745C13.0519 82.6703 13.1405 82.5723 13.2059 82.451C13.2712 82.3297 13.3039 82.2013 13.3039 82.066C13.3039 81.926 13.2712 81.7977 13.2059 81.681C13.1405 81.5597 13.0519 81.4617 12.9399 81.387C12.8279 81.3077 12.6925 81.268 12.5339 81.268C12.3845 81.268 12.2515 81.3077 12.1349 81.387C12.0182 81.4617 11.9272 81.5597 11.8619 81.681C11.7965 81.8023 11.7639 81.9307 11.7639 82.066C11.7639 82.1967 11.7965 82.325 11.8619 82.451C11.9272 82.5723 12.0182 82.6703 12.1349 82.745C12.2515 82.8197 12.3845 82.857 12.5339 82.857ZM15.9639 86.084C15.7072 86.084 15.4762 86.0233 15.2709 85.902C15.0655 85.776 14.8999 85.6103 14.7739 85.405C14.6525 85.1997 14.5919 84.971 14.5919 84.719C14.5919 84.467 14.6525 84.2383 14.7739 84.033C14.8999 83.823 15.0655 83.6573 15.2709 83.536C15.4762 83.4147 15.7072 83.354 15.9639 83.354C16.2159 83.354 16.4445 83.4147 16.6499 83.536C16.8552 83.6573 17.0185 83.823 17.1399 84.033C17.2612 84.2383 17.3219 84.467 17.3219 84.719C17.3219 84.971 17.2612 85.1997 17.1399 85.405C17.0185 85.6103 16.8552 85.776 16.6499 85.902C16.4445 86.0233 16.2159 86.084 15.9639 86.084ZM15.9639 85.51C16.1179 85.51 16.2509 85.4727 16.3629 85.398C16.4795 85.3233 16.5682 85.2253 16.6289 85.104C16.6942 84.9827 16.7269 84.8543 16.7269 84.719C16.7269 84.579 16.6942 84.4507 16.6289 84.334C16.5682 84.2127 16.4795 84.1147 16.3629 84.04C16.2509 83.9607 16.1179 83.921 15.9639 83.921C15.8145 83.921 15.6792 83.9607 15.5579 84.04C15.4412 84.1147 15.3502 84.2127 15.2849 84.334C15.2195 84.4553 15.1869 84.5837 15.1869 84.719C15.1869 84.8497 15.2195 84.978 15.2849 85.104C15.3502 85.2253 15.4412 85.3233 15.5579 85.398C15.6792 85.4727 15.8145 85.51 15.9639 85.51Z" fill="#6A6969"/>
<path d="M4.363 113V111.796H1.801V111.229L4.349 107.785H5.007V111.229H5.686V111.796H5.007V113H4.363ZM2.319 111.474L2.221 111.229H4.363V108.359L4.566 108.415L2.319 111.474ZM8.50487 113.084C8.08953 113.084 7.72553 112.972 7.41287 112.748C7.10487 112.519 6.86453 112.204 6.69187 111.803C6.5192 111.397 6.43287 110.926 6.43287 110.389C6.43287 109.852 6.5192 109.383 6.69187 108.982C6.86453 108.576 7.10487 108.261 7.41287 108.037C7.72087 107.813 8.08253 107.701 8.49787 107.701C8.9132 107.701 9.27487 107.813 9.58287 108.037C9.89087 108.261 10.1312 108.576 10.3039 108.982C10.4812 109.383 10.5699 109.852 10.5699 110.389C10.5699 110.926 10.4835 111.397 10.3109 111.803C10.1382 112.209 9.89553 112.524 9.58287 112.748C9.27487 112.972 8.91553 113.084 8.50487 113.084ZM8.50487 112.447C8.78487 112.447 9.02753 112.363 9.23287 112.195C9.4382 112.022 9.59687 111.782 9.70887 111.474C9.82553 111.166 9.88387 110.804 9.88387 110.389C9.88387 109.974 9.82553 109.612 9.70887 109.304C9.59687 108.996 9.43587 108.758 9.22587 108.59C9.02053 108.422 8.77787 108.338 8.49787 108.338C8.21787 108.338 7.9752 108.422 7.76987 108.59C7.56453 108.758 7.40353 108.996 7.28687 109.304C7.17487 109.612 7.11887 109.974 7.11887 110.389C7.11887 110.8 7.17487 111.159 7.28687 111.467C7.40353 111.775 7.56453 112.015 7.76987 112.188C7.97987 112.361 8.22487 112.447 8.50487 112.447ZM12.0303 113L16.2863 107.785H17.0633L12.8073 113H12.0303ZM12.8143 110.431C12.5576 110.431 12.3266 110.37 12.1213 110.249C11.916 110.123 11.7503 109.957 11.6243 109.752C11.503 109.547 11.4423 109.318 11.4423 109.066C11.4423 108.814 11.503 108.585 11.6243 108.38C11.7503 108.17 11.916 108.004 12.1213 107.883C12.3266 107.762 12.5576 107.701 12.8143 107.701C13.0663 107.701 13.295 107.762 13.5003 107.883C13.7056 108.004 13.869 108.17 13.9903 108.38C14.1116 108.585 14.1723 108.814 14.1723 109.066C14.1723 109.318 14.1116 109.547 13.9903 109.752C13.869 109.957 13.7056 110.123 13.5003 110.249C13.295 110.37 13.0663 110.431 12.8143 110.431ZM12.8073 109.857C12.966 109.857 13.1013 109.82 13.2133 109.745C13.3253 109.67 13.414 109.572 13.4793 109.451C13.5446 109.33 13.5773 109.201 13.5773 109.066C13.5773 108.926 13.5446 108.798 13.4793 108.681C13.414 108.56 13.3253 108.462 13.2133 108.387C13.1013 108.308 12.966 108.268 12.8073 108.268C12.658 108.268 12.525 108.308 12.4083 108.387C12.2916 108.462 12.2006 108.56 12.1353 108.681C12.07 108.802 12.0373 108.931 12.0373 109.066C12.0373 109.197 12.07 109.325 12.1353 109.451C12.2006 109.572 12.2916 109.67 12.4083 109.745C12.525 109.82 12.658 109.857 12.8073 109.857ZM16.2373 113.084C15.9806 113.084 15.7496 113.023 15.5443 112.902C15.339 112.776 15.1733 112.61 15.0473 112.405C14.926 112.2 14.8653 111.971 14.8653 111.719C14.8653 111.467 14.926 111.238 15.0473 111.033C15.1733 110.823 15.339 110.657 15.5443 110.536C15.7496 110.415 15.9806 110.354 16.2373 110.354C16.4893 110.354 16.718 110.415 16.9233 110.536C17.1286 110.657 17.292 110.823 17.4133 111.033C17.5346 111.238 17.5953 111.467 17.5953 111.719C17.5953 111.971 17.5346 112.2 17.4133 112.405C17.292 112.61 17.1286 112.776 16.9233 112.902C16.718 113.023 16.4893 113.084 16.2373 113.084ZM16.2373 112.51C16.3913 112.51 16.5243 112.473 16.6363 112.398C16.753 112.323 16.8416 112.225 16.9023 112.104C16.9676 111.983 17.0003 111.854 17.0003 111.719C17.0003 111.579 16.9676 111.451 16.9023 111.334C16.8416 111.213 16.753 111.115 16.6363 111.04C16.5243 110.961 16.3913 110.921 16.2373 110.921C16.088 110.921 15.9526 110.961 15.8313 111.04C15.7146 111.115 15.6236 111.213 15.5583 111.334C15.493 111.455 15.4603 111.584 15.4603 111.719C15.4603 111.85 15.493 111.978 15.5583 112.104C15.6236 112.225 15.7146 112.323 15.8313 112.398C15.9526 112.473 16.088 112.51 16.2373 112.51Z" fill="#6A6969"/>
<path d="M1.878 140V139.524L3.32 137.963C3.60467 137.66 3.831 137.41 3.999 137.214C4.17167 137.018 4.29767 136.843 4.377 136.689C4.45633 136.535 4.496 136.372 4.496 136.199C4.496 135.914 4.412 135.695 4.244 135.541C4.076 135.387 3.85433 135.31 3.579 135.31C3.299 135.31 3.061 135.392 2.865 135.555C2.669 135.714 2.53367 135.94 2.459 136.234L1.836 136.073C1.89667 135.793 2.00867 135.55 2.172 135.345C2.33533 135.14 2.53833 134.981 2.781 134.869C3.02367 134.757 3.28967 134.701 3.579 134.701C3.89633 134.701 4.174 134.764 4.412 134.89C4.65467 135.011 4.84367 135.182 4.979 135.401C5.119 135.62 5.189 135.875 5.189 136.164C5.189 136.355 5.14933 136.542 5.07 136.724C4.99067 136.906 4.874 137.1 4.72 137.305C4.566 137.506 4.36533 137.739 4.118 138.005L2.83 139.405H5.301V140H1.878ZM8.23143 140.084C7.8161 140.084 7.4521 139.972 7.13943 139.748C6.83143 139.519 6.5911 139.204 6.41843 138.803C6.24576 138.397 6.15943 137.926 6.15943 137.389C6.15943 136.852 6.24576 136.383 6.41843 135.982C6.5911 135.576 6.83143 135.261 7.13943 135.037C7.44743 134.813 7.8091 134.701 8.22443 134.701C8.63976 134.701 9.00143 134.813 9.30943 135.037C9.61743 135.261 9.85776 135.576 10.0304 135.982C10.2078 136.383 10.2964 136.852 10.2964 137.389C10.2964 137.926 10.2101 138.397 10.0374 138.803C9.86476 139.209 9.6221 139.524 9.30943 139.748C9.00143 139.972 8.6421 140.084 8.23143 140.084ZM8.23143 139.447C8.51143 139.447 8.7541 139.363 8.95943 139.195C9.16476 139.022 9.32343 138.782 9.43543 138.474C9.5521 138.166 9.61043 137.804 9.61043 137.389C9.61043 136.974 9.5521 136.612 9.43543 136.304C9.32343 135.996 9.16243 135.758 8.95243 135.59C8.7471 135.422 8.50443 135.338 8.22443 135.338C7.94443 135.338 7.70176 135.422 7.49643 135.59C7.2911 135.758 7.1301 135.996 7.01343 136.304C6.90143 136.612 6.84543 136.974 6.84543 137.389C6.84543 137.8 6.90143 138.159 7.01343 138.467C7.1301 138.775 7.2911 139.015 7.49643 139.188C7.70643 139.361 7.95143 139.447 8.23143 139.447ZM11.7569 140L16.0129 134.785H16.7899L12.5339 140H11.7569ZM12.5409 137.431C12.2842 137.431 12.0532 137.37 11.8479 137.249C11.6425 137.123 11.4769 136.957 11.3509 136.752C11.2295 136.547 11.1689 136.318 11.1689 136.066C11.1689 135.814 11.2295 135.585 11.3509 135.38C11.4769 135.17 11.6425 135.004 11.8479 134.883C12.0532 134.762 12.2842 134.701 12.5409 134.701C12.7929 134.701 13.0215 134.762 13.2269 134.883C13.4322 135.004 13.5955 135.17 13.7169 135.38C13.8382 135.585 13.8989 135.814 13.8989 136.066C13.8989 136.318 13.8382 136.547 13.7169 136.752C13.5955 136.957 13.4322 137.123 13.2269 137.249C13.0215 137.37 12.7929 137.431 12.5409 137.431ZM12.5339 136.857C12.6925 136.857 12.8279 136.82 12.9399 136.745C13.0519 136.67 13.1405 136.572 13.2059 136.451C13.2712 136.33 13.3039 136.201 13.3039 136.066C13.3039 135.926 13.2712 135.798 13.2059 135.681C13.1405 135.56 13.0519 135.462 12.9399 135.387C12.8279 135.308 12.6925 135.268 12.5339 135.268C12.3845 135.268 12.2515 135.308 12.1349 135.387C12.0182 135.462 11.9272 135.56 11.8619 135.681C11.7965 135.802 11.7639 135.931 11.7639 136.066C11.7639 136.197 11.7965 136.325 11.8619 136.451C11.9272 136.572 12.0182 136.67 12.1349 136.745C12.2515 136.82 12.3845 136.857 12.5339 136.857ZM15.9639 140.084C15.7072 140.084 15.4762 140.023 15.2709 139.902C15.0655 139.776 14.8999 139.61 14.7739 139.405C14.6525 139.2 14.5919 138.971 14.5919 138.719C14.5919 138.467 14.6525 138.238 14.7739 138.033C14.8999 137.823 15.0655 137.657 15.2709 137.536C15.4762 137.415 15.7072 137.354 15.9639 137.354C16.2159 137.354 16.4445 137.415 16.6499 137.536C16.8552 137.657 17.0185 137.823 17.1399 138.033C17.2612 138.238 17.3219 138.467 17.3219 138.719C17.3219 138.971 17.2612 139.2 17.1399 139.405C17.0185 139.61 16.8552 139.776 16.6499 139.902C16.4445 140.023 16.2159 140.084 15.9639 140.084ZM15.9639 139.51C16.1179 139.51 16.2509 139.473 16.3629 139.398C16.4795 139.323 16.5682 139.225 16.6289 139.104C16.6942 138.983 16.7269 138.854 16.7269 138.719C16.7269 138.579 16.6942 138.451 16.6289 138.334C16.5682 138.213 16.4795 138.115 16.3629 138.04C16.2509 137.961 16.1179 137.921 15.9639 137.921C15.8145 137.921 15.6792 137.961 15.5579 138.04C15.4412 138.115 15.3502 138.213 15.2849 138.334C15.2195 138.455 15.1869 138.584 15.1869 138.719C15.1869 138.85 15.2195 138.978 15.2849 139.104C15.3502 139.225 15.4412 139.323 15.5579 139.398C15.6792 139.473 15.8145 139.51 15.9639 139.51Z" fill="#6A6969"/>
<path d="M53 90.5026C48.5 88.3576 25 78.1685 25 78.1685V157H514V53.5C514 53.5 511.5 58.8627 507.5 63.6892C503.5 68.5157 484.5 80.3135 480 82.4586C475.5 84.6037 432.5 107.127 400.5 103.909C368.5 100.692 337 82.4586 337 82.4586C337 82.4586 293 63.6892 267.5 63.6892C242 63.6892 221 77.6321 199.5 78.1685C178 78.7048 154.5 86.2125 128 96.9379C101.5 107.663 57.5 92.6477 53 90.5026Z" fill="url(#paint0_linear_79_42)" fill-opacity="0.2"/>
<path d="M25 78.1685C25 78.1685 48.5 88.3576 53 90.5027C57.5 92.6477 101.5 107.663 128 96.9379C154.5 86.2125 178 78.7048 199.5 78.1685C221 77.6321 242 63.6892 267.5 63.6892C293 63.6892 337 82.4586 337 82.4586C337 82.4586 368.5 100.692 400.5 103.909C432.5 107.127 475.5 84.6037 480 82.4586C484.5 80.3135 503.5 68.5157 507.5 63.6892C511.5 58.8627 514 53.5 514 53.5" stroke="#6A6969" stroke-width="4" stroke-linecap="round"/>
<line x1="25" y1="137.5" x2="511.018" y2="137.5" stroke="#6A6969" stroke-opacity="0.5" stroke-dasharray="2 2"/>
<line x1="25" y1="110.5" x2="511.018" y2="110.5" stroke="#6A6969" stroke-opacity="0.5" stroke-dasharray="2 2"/>
<line x1="27.9817" y1="83.5" x2="514" y2="83.5" stroke="#6A6969" stroke-opacity="0.5" stroke-dasharray="2 2"/>
<line x1="25" y1="56.5" x2="511.018" y2="56.5" stroke="#6A6969" stroke-opacity="0.5" stroke-dasharray="2 2"/>
<line x1="25" y1="29.5" x2="511.018" y2="29.5" stroke="#6A6969" stroke-opacity="0.5" stroke-dasharray="2 2"/>
<defs>
<linearGradient id="paint0_linear_79_42" x1="270" y1="63.1528" x2="270" y2="157" gradientUnits="userSpaceOnUse">
<stop stop-color="#6A6969"/>
<stop offset="0.7" stop-color="#6A6969" stop-opacity="0"/>
</linearGradient>
</defs>
</svg>
